<svg xmlns="http://www.w3.org/2000/svg" viewBox="0 0 348.64 348.64"><defs><style>.cls-1{fill:#fbbc05;}.cls-2{fill:#34a853;}.cls-3{fill:#4285f4;}.cls-4{fill:#ea4335;}</style></defs><title>2019-03-15_GoogleOne_FINAL</title><g id="Layer_1" data-name="Layer 1"><path class="cls-1" d="M167.88,99.42l0,0L124.7,135.62a17.53,17.53,0,0,0-2.17,24.69h0a17.52,17.52,0,0,0,24.69,2.17l14.37-12V112.87A17.52,17.52,0,0,1,167.88,99.42Z" transform="translate(0 0)"/><path class="cls-2" d="M179.11,253.29a17.53,17.53,0,0,0,17.53-17.53V220.31l-35-27.18v42.63A17.52,17.52,0,0,0,179.11,253.29Z" transform="translate(0 0)"/><path class="cls-3" d="M196.64,112.78a17.52,17.52,0,0,1-6.27,13.53l-28.78,24.13v42.69l35,27.18V112.78Z" transform="translate(0 0)"/><path class="cls-4" d="M196.64,112.78s0-.1,0-.15c0-.53,0-1-.08-1.57v0c-.06-.55-.14-1.09-.25-1.63v0c-.11-.54-.25-1.08-.41-1.61v0c-.17-.53-.36-1-.57-1.57l0-.05a16.67,16.67,0,0,0-.74-1.54h0a17.38,17.38,0,0,0-2-2.91l-.05-.06a16.47,16.47,0,0,0-1.13-1.22l-.15-.14c-.37-.35-.75-.69-1.13-1l-.23-.17q-.57-.45-1.17-.84l-.24-.16q-.61-.39-1.26-.72l-.2-.1q-.67-.35-1.38-.63l-.13,0q-.74-.28-1.5-.51l-.08,0c-.51-.15-1-.27-1.56-.37h-.09c-.51-.1-1-.17-1.56-.22h-.14c-.51,0-1-.06-1.54-.06h-.16q-.78,0-1.56.09h-.05c-.54.06-1.08.14-1.62.25h0c-.54.11-1.07.25-1.6.41H174c-.52.16-1,.35-1.55.56l-.06,0a15.27,15.27,0,0,0-1.53.73h0a17.44,17.44,0,0,0-1.49.91h0c-.48.32-.95.68-1.4,1a17.52,17.52,0,0,0-6.29,13.45v37.57l28.78-24.13A17.52,17.52,0,0,0,196.64,112.78Z" transform="translate(0 0)"/><path class="cls-2" d="M279.45,283.6l-.55.54A151.7,151.7,0,0,1,43,250.15L25.4,264.93a173.91,173.91,0,0,0,141.08,83.53c2.6.11,5.22.18,7.84.18s5.23-.07,7.84-.18a173.59,173.59,0,0,0,113-48.55h0l2.39-2.34a.46.46,0,0,0,.07-.07Z" transform="translate(0 0)"/><path class="cls-4" d="M242.17,13.7a173,173,0,0,0-60-13.52c-2.6-.11-5.22-.18-7.84-.18s-5.24.07-7.85.18A174.43,174.43,0,0,0,24.76,84.75l0,0-1.24,2.14-.43.74,18.2,13.91.62-1.14v0A151.57,151.57,0,0,1,271.58,58l17.56-14.76A173.41,173.41,0,0,0,242.17,13.7Z" transform="translate(0 0)"/><path class="cls-1" d="M39.56,244c-1.81-3.51-3.49-7.08-5-10.61a151.21,151.21,0,0,1,6.68-131.83L23.06,87.61l-.52.89,0,0a175.62,175.62,0,0,0-8.86,17.94,174.89,174.89,0,0,0,0,135.71c1.94,4.59,4.11,9.12,6.42,13.52h0l.87,1.62,1.21,2.23,0,0c1,1.82,2.08,3.63,3.17,5.41L43,250.15C41.79,248.11,40.65,246.06,39.56,244Z" transform="translate(0 0)"/><path class="cls-3" d="M276.31,62.08c1.79,1.63,3.55,3.31,5.24,5a151.49,151.49,0,0,1,0,214.47c-.69.7-1.39,1.38-2.1,2.05l18.2,13.91.12-.13.53-.52h0a174.16,174.16,0,0,0-.71-245.79c-.58-.59-1.18-1.15-1.77-1.72l0,0L294,47.6l0,0-1.34-1.27,0,0c-1.15-1.07-2.32-2.11-3.5-3.14L271.58,58Q274,60,276.31,62.08Z" transform="translate(0 0)"/></g></svg>